<?xml version="1.0" encoding="utf-8"?>
<!-- Generator: Adobe Illustrator 28.2.0, SVG Export Plug-In . SVG Version: 6.00 Build 0)  -->
<svg version="1.1" id="Layer_1" xmlns="http://www.w3.org/2000/svg" xmlns:xlink="http://www.w3.org/1999/xlink" x="0px" y="0px"
	 viewBox="0 0 42 42.7" style="enable-background:new 0 0 42 42.7;" xml:space="preserve">
<style type="text/css">
	.st0{opacity:0.91;}
	.st1{fill:none;stroke:#1FFF26;stroke-width:8;stroke-miterlimit:10;}
	.st2{fill:none;stroke:#FFFFFF;stroke-width:3;stroke-miterlimit:10;}
	.st3{opacity:0.97;}
	.st4{fill:none;stroke:#1FFF26;stroke-width:10;stroke-miterlimit:10;}
	.st5{fill:none;stroke:#1FFF26;stroke-width:10;stroke-linecap:round;stroke-linejoin:round;stroke-miterlimit:10;}
	.st6{fill:none;stroke:#FFFFFF;stroke-width:3;stroke-linejoin:round;stroke-miterlimit:10;}
	.st7{fill:none;stroke:#1FFF26;stroke-width:3;stroke-linecap:round;stroke-linejoin:round;stroke-miterlimit:10;}
</style>
<path d="M35.7,42.6H0.3V6.1C0.3,2.8,3.1,0,6.5,0H42v36.4C42,39.8,39.1,42.6,35.7,42.6z"/>
<g id="BACKGROUND" class="st0">
	<path class="st1" d="M18.7,5.1"/>
	<path class="st1" d="M18.7,8.6"/>
	<path class="st2" d="M26.7,15.9H15c-0.4,0-0.7-0.3-0.7-0.7V8c0-0.4,0.3-0.7,0.7-0.7h11.7c0.4,0,0.7,0.3,0.7,0.7v7.3
		C27.5,15.6,27.1,15.9,26.7,15.9z"/>
</g>
<g class="st3">
	<path class="st4" d="M27.5,27.8"/>
	<path class="st4" d="M27.5,27.8"/>
</g>
<g class="st3">
	<path class="st4" d="M13.1,27.8"/>
	<path class="st4" d="M13.1,27.8"/>
</g>
<path class="st4" d="M35.9,4"/>
<path class="st4" d="M36.6,6.2"/>
<g>
	<g>
		<path class="st5" d="M14.1,44.7"/>
		<path class="st6" d="M36.4,6.2v26c0,2.3-1.9,4.2-4.2,4.2H25"/>
	</g>
</g>
<g>
	<g>
		<path class="st7" d="M28.3,44.7"/>
		<path class="st6" d="M6,6.2v26c0,2.3,1.9,4.2,4.2,4.2h7"/>
	</g>
</g>
<g>
	<g>
		<line class="st2" x1="27.8" y1="22.3" x2="14" y2="22.3"/>
	</g>
</g>
<g>
	<g>
		<line class="st2" x1="27.8" y1="29" x2="13.9" y2="29"/>
	</g>
</g>
</svg>
