<?xml version="1.0" encoding="utf-8"?>
<!-- Generator: Adobe Illustrator 28.2.0, SVG Export Plug-In . SVG Version: 6.00 Build 0)  -->
<svg version="1.1" id="Layer_1" xmlns="http://www.w3.org/2000/svg" xmlns:xlink="http://www.w3.org/1999/xlink" x="0px" y="0px"
	 viewBox="0 0 132 46" style="enable-background:new 0 0 132 46;" xml:space="preserve">
<style type="text/css">
	.st0{opacity:0.91;}
	.st1{fill:none;stroke:#1FFF26;stroke-width:8;stroke-miterlimit:10;}
	.st2{fill:none;stroke:#FFFFFF;stroke-width:3;stroke-miterlimit:10;}
	.st3{opacity:0.97;}
	.st4{fill:none;stroke:#1FFF26;stroke-width:10;stroke-miterlimit:10;}
	.st5{fill:none;stroke:#1FFF26;stroke-width:10;stroke-linecap:round;stroke-linejoin:round;stroke-miterlimit:10;}
	.st6{fill:none;stroke:#FFFFFF;stroke-width:3;stroke-linejoin:round;stroke-miterlimit:10;}
	.st7{fill:none;stroke:#1FFF26;stroke-width:3;stroke-linecap:round;stroke-linejoin:round;stroke-miterlimit:10;}
</style>
<g>
	<path d="M20.3,20c0,0.8,0,1.5-0.1,2.1s-0.2,1-0.5,1.5s-0.5,0.9-0.9,1.4s-1,1.1-1.7,1.9l3.3,4.6c0.2,0.3,0.3,0.5,0.4,0.6
		s0.1,0.3,0.1,0.4c0,0.2-0.1,0.3-0.4,0.4S19.7,33,19,33c-0.6,0-1,0-1.3,0s-0.6-0.1-0.7-0.2s-0.3-0.2-0.5-0.4l-5-7.1
		c-0.3,0.5-0.5,0.9-0.7,1.2s-0.2,0.7-0.3,1.1s-0.1,1.1-0.1,2v2.9c0,0.2-0.1,0.4-0.4,0.5s-0.8,0-1.5,0S7.3,33,7,32.9
		s-0.4-0.2-0.4-0.5v-2.8c0-1.3,0.1-2.3,0.2-3s0.4-1.4,0.8-2.1C8,23.8,8.5,23,9.3,22.2l-2.4-3.4c-0.2-0.2-0.3-0.4-0.4-0.6
		s-0.1-0.3-0.1-0.4c0-0.2,0.1-0.3,0.4-0.4s0.8-0.1,1.5-0.1c0.8,0,1.3,0,1.7,0.1s0.6,0.2,0.8,0.5l4.3,6.1c0.5-0.5,0.8-0.9,1-1.3
		c0.2-0.4,0.3-0.7,0.4-1.1s0.1-0.9,0.1-1.5v-2.3c0-0.2,0.1-0.4,0.4-0.5s0.8-0.1,1.5-0.1s1.2,0,1.5,0.1s0.4,0.2,0.4,0.5V20H20.3z"/>
	<path d="M27.4,26.2c0,0.2-0.1,0.4-0.4,0.5s-0.8,0.1-1.5,0.1s-1.2,0-1.5-0.1s-0.4-0.2-0.4-0.5v-8.3c0-0.2,0.1-0.4,0.4-0.5
		s0.8-0.1,1.5-0.1s1.2,0,1.5,0.1s0.4,0.2,0.4,0.5V26.2z"/>
	<path d="M40.8,32.4c0,0.2-0.1,0.4-0.4,0.5S39.6,33,38.9,33s-1.2,0-1.5-0.1S37,32.6,37,32.4v-8.5c0-0.9,0-1.6-0.1-2s-0.2-0.7-0.5-1
		s-0.5-0.4-1-0.5s-1-0.2-1.8-0.2c-1,0-2.2,0.1-3.7,0.2c-0.2,0-0.3-0.1-0.4-0.3s-0.1-0.6-0.1-1.2s0-1,0.1-1.2s0.2-0.3,0.4-0.3
		c1.3-0.1,2.6-0.2,3.8-0.2c1.4,0,2.6,0.1,3.4,0.3s1.6,0.6,2.1,1s0.9,1.1,1.1,1.9s0.3,1.9,0.3,3.2v8.8H40.8z"/>
	<path d="M55.6,29.7c0.2,0.3,0.3,0.5,0.4,0.7s0.1,0.4,0.1,0.6v0.7c0,0.4,0,0.7-0.1,0.9s-0.2,0.3-0.5,0.3H43.6
		c-0.2,0-0.3-0.1-0.4-0.4s-0.1-0.6-0.1-1.1s0-0.9,0.1-1.2s0.2-0.4,0.4-0.4h7.6l-8-11.2c-0.2-0.3-0.3-0.5-0.3-0.7s0.2-0.4,0.5-0.5
		s0.8-0.2,1.5-0.2c0.8,0,1.4,0,1.7,0.1s0.6,0.2,0.7,0.5l4,5.7l0.3-0.3c0.3-0.3,0.5-0.6,0.7-0.9s0.3-0.6,0.3-1s0.1-0.8,0.1-1.4v-2.1
		c0-0.2,0.1-0.4,0.4-0.5s0.8-0.1,1.5-0.1s1.2,0,1.5,0.1s0.4,0.2,0.4,0.5v2c0,1-0.1,1.9-0.2,2.5s-0.4,1.2-0.7,1.8s-0.9,1.2-1.6,2
		l-0.4,0.5L55.6,29.7z"/>
	<path d="M63.4,32.4c0,0.2-0.1,0.4-0.4,0.5S62.2,33,61.5,33s-1.2,0-1.5-0.1s-0.4-0.2-0.4-0.5V17.9c0-0.2,0.1-0.4,0.4-0.5
		s0.8-0.1,1.5-0.1s1.2,0,1.5,0.1s0.4,0.2,0.4,0.5V32.4z"/>
	<path d="M80.3,20c0,0.8,0,1.5-0.1,2.1s-0.2,1-0.5,1.5s-0.5,0.9-0.9,1.4s-1,1.1-1.7,1.9l3.3,4.6c0.2,0.3,0.3,0.5,0.4,0.6
		c0.1,0.2,0.1,0.3,0.1,0.4c0,0.2-0.1,0.3-0.4,0.4C80.1,33,79.6,33,78.9,33c-0.6,0-1,0-1.3,0s-0.6-0.1-0.7-0.2s-0.3-0.2-0.5-0.4
		l-5-7.1c-0.3,0.5-0.5,0.9-0.7,1.2s-0.2,0.7-0.3,1.1s-0.1,1.1-0.1,2v2.9c0,0.2-0.1,0.4-0.4,0.5s-0.7,0-1.4,0s-1.2,0-1.5-0.1
		s-0.4-0.2-0.4-0.5v-2.8c0-1.3,0.1-2.3,0.2-3s0.4-1.4,0.8-2.1s0.9-1.5,1.6-2.3l-2.4-3.4c-0.2-0.2-0.3-0.4-0.4-0.6s-0.1-0.3-0.1-0.4
		c0-0.2,0.1-0.3,0.4-0.4s0.8-0.1,1.5-0.1c0.8,0,1.3,0,1.7,0.1s0.6,0.2,0.8,0.5L75,24c0.5-0.5,0.8-0.9,1-1.3s0.3-0.7,0.4-1.1
		s0.1-0.9,0.1-1.5v-2.3c0-0.2,0.1-0.4,0.4-0.5s0.8-0.1,1.5-0.1s1.2,0,1.5,0.1s0.4,0.2,0.4,0.5V20z"/>
</g>
<g>
	<path d="M117.6,40.6H87.9V10.1c0-2.8,2.4-5.1,5.2-5.1h29.7v30.5C122.8,38.3,120.4,40.6,117.6,40.6z"/>
	<g id="BACKGROUND" class="st0">
		<path class="st1" d="M103.3,9.2"/>
		<path class="st1" d="M103.3,12.1"/>
		<path class="st2" d="M110,18.3h-9.8c-0.3,0-0.6-0.3-0.6-0.6v-6.1c0-0.3,0.3-0.6,0.6-0.6h9.8c0.3,0,0.6,0.3,0.6,0.6v6.1
			C110.6,18,110.3,18.3,110,18.3z"/>
	</g>
	<g class="st3">
		<path class="st4" d="M110.7,28.2"/>
		<path class="st4" d="M110.7,28.2"/>
	</g>
	<g class="st3">
		<path class="st4" d="M98.6,28.2"/>
		<path class="st4" d="M98.6,28.2"/>
	</g>
	<path class="st4" d="M117.7,8.3"/>
	<path class="st4" d="M118.3,10.1"/>
	<g>
		<g>
			<path class="st5" d="M99.4,42.3"/>
			<path class="st6" d="M118.1,10.1v21.8c0,1.9-1.6,3.5-3.5,3.5h-6"/>
		</g>
	</g>
	<g>
		<g>
			<path class="st7" d="M111.4,42.3"/>
			<path class="st6" d="M92.7,10.1v21.8c0,1.9,1.6,3.5,3.5,3.5h5.8"/>
		</g>
	</g>
	<g>
		<g>
			<line class="st2" x1="110.9" y1="23.6" x2="99.3" y2="23.6"/>
		</g>
	</g>
	<g>
		<g>
			<line class="st2" x1="110.9" y1="29.2" x2="99.3" y2="29.2"/>
		</g>
	</g>
</g>
</svg>
