<?xml version="1.0" encoding="utf-8"?>
<!-- Generator: Adobe Illustrator 28.2.0, SVG Export Plug-In . SVG Version: 6.00 Build 0)  -->
<svg version="1.1" id="Layer_1" xmlns="http://www.w3.org/2000/svg" xmlns:xlink="http://www.w3.org/1999/xlink" x="0px" y="0px"
	 viewBox="0 0 132 46" style="enable-background:new 0 0 132 46;" xml:space="preserve">
<style type="text/css">
	.st0{clip-path:url(#SVGID_00000038375238754970939930000010970376189224411010_);}
	.st1{fill:#3758F9;}
	.st2{fill-rule:evenodd;clip-rule:evenodd;fill:#FFFFFF;}
</style>
<g>
	<defs>
		<rect id="SVGID_1_" x="96.1" y="0" width="131.3" height="46"/>
	</defs>
	<clipPath id="SVGID_00000013898972589307161860000011404127034941052058_">
		<use xlink:href="#SVGID_1_"  style="overflow:visible;"/>
	</clipPath>
	<g style="clip-path:url(#SVGID_00000013898972589307161860000011404127034941052058_);">
		<path class="st1" d="M112.8,39.3c9.2,0,16.7-7.5,16.7-16.7c0-9.2-7.5-16.7-16.7-16.7c-9.2,0-16.7,7.5-16.7,16.7
			C96.1,31.8,103.6,39.3,112.8,39.3z"/>
		<path class="st2" d="M106.6,25.7c-1.8-3-1.5-5.6,0.9-8c3.5-3.5,6.7-1.3,8.9-2.7c1.5-0.9,2.1-2.4,1.8-4.4c1.8,3,1.5,5.6-0.9,8
			c-3.5,3.5-6.7,1.3-8.9,2.7C106.9,22.1,106.3,23.6,106.6,25.7z M107.5,35.4c-1.8-3-1.5-5.6,0.9-8c3.5-3.5,6.7-1.3,8.9-2.7
			c1.5-0.9,2.1-2.4,1.8-4.4c1.8,3,1.5,5.6-0.9,8c-3.5,3.5-6.7,1.3-8.9,2.7C107.8,31.9,107.2,33.3,107.5,35.4z"/>
	</g>
</g>
<g>
	<path d="M8.9,29.1c0-3.1,0.7-6,3-8.4c-1.4-1.6-3-3.3-4.3-4.4L7.6,16l3.4-0.3c1.6,1.7,4,4.4,7.4,8.5c1.3-0.9,2.1-2.1,2.1-4.2
		c0-1.2-0.4-2.7-1-4l3.1-0.3c0.4,1.2,0.6,2.4,0.6,3.8c0,2.6-1.3,5-3.6,6.3c1.7,2.1,4.4,6,5.4,7.5h-3.4c-1.1-1.7-3.8-5.7-8.4-11
		c-1.4,1.7-1.7,4-1.6,6c0,1.8,0.5,3.6,0.9,5H9.4C9.1,32.1,8.9,30.5,8.9,29.1z"/>
	<path d="M27.4,25.7c1.3-2,2-3.6,2-4.9c0-1.1-0.6-1.4-2.1-1.8c-0.8-0.2-1.4-0.4-2-0.6l0.5-2.8c0.4,0.2,1.1,0.4,1.9,0.5
		c3,0.7,4.1,1.6,4.1,4c0,2-1,4.3-2.5,6.6L27.4,25.7z"/>
	<path d="M43.7,23.4c0-3.2-0.4-4.6-3.4-4.6h-3.2c-1.9,0-3.1-0.1-3.6-0.2l0.5-2.8c0.6,0.1,2.3,0.1,4.4,0.1h2c4.7,0,5.6,1.1,5.6,6.6
		v10.8h-2.5V23.4z"/>
	<path d="M50.3,30.6c0.7-0.1,2.6-0.2,4.4-0.2h5c-0.9-0.9-2.9-3.4-6.4-8c-1.6-2.2-3.6-4.7-4.9-6.4l3.6-0.3c1.3,1.9,3.6,5.2,5.4,7.6
		c2.4-1,2.8-2.4,2.8-4.2c0-1-0.4-2.2-0.7-3.1l3.1-0.3c0.3,0.8,0.4,1.7,0.4,2.8c0,3-1.2,5.1-4.5,6.5c2.7,3.6,4.4,5.5,5,6l-0.5,2.4
		h-8.6c-2.1,0-4,0-4.7,0.1L50.3,30.6z"/>
	<path d="M69.8,23.3c0-2.8-0.3-3.7-2.8-4.4c-1.1-0.3-1.7-0.4-2.2-0.6l0.5-2.8c0.4,0.2,1.1,0.3,2.2,0.5c3.6,0.8,4.7,2,4.7,6.8v10.5
		h-2.5V23.3z"/>
	<path d="M76.6,29.1c0-3.1,0.7-6,3-8.4c-1.4-1.6-3-3.3-4.3-4.4l0.1-0.2l3.4-0.3c1.6,1.7,4,4.4,7.4,8.5c1.3-0.9,2.1-2.1,2.1-4.2
		c0-1.2-0.4-2.7-1-4l3.1-0.3c0.4,1.2,0.6,2.4,0.6,3.8c0,2.6-1.3,5-3.6,6.3c1.7,2.1,4.4,6,5.4,7.5h-3.4c-1.1-1.7-3.8-5.7-8.4-11
		c-1.4,1.7-1.7,4-1.6,6c0,1.8,0.5,3.6,0.9,5h-3.1C76.8,32.1,76.6,30.5,76.6,29.1z"/>
</g>
</svg>
