<?xml version="1.0" encoding="utf-8"?>
<!-- Generator: Adobe Illustrator 28.2.0, SVG Export Plug-In . SVG Version: 6.00 Build 0)  -->
<svg version="1.1" id="Layer_1" xmlns="http://www.w3.org/2000/svg" xmlns:xlink="http://www.w3.org/1999/xlink" x="0px" y="0px"
	 viewBox="0 0 132 46" style="enable-background:new 0 0 132 46;" xml:space="preserve">
<style type="text/css">
	.st0{fill:#FFFFFF;}
	.st1{opacity:0.91;}
	.st2{fill:none;stroke:#1FFF26;stroke-width:8;stroke-miterlimit:10;}
	.st3{fill:none;stroke:#FFFFFF;stroke-width:3;stroke-miterlimit:10;}
	.st4{opacity:0.97;}
	.st5{fill:none;stroke:#1FFF26;stroke-width:10;stroke-miterlimit:10;}
	.st6{fill:none;stroke:#1FFF26;stroke-width:10;stroke-linecap:round;stroke-linejoin:round;stroke-miterlimit:10;}
	.st7{fill:none;stroke:#FFFFFF;stroke-width:3;stroke-linejoin:round;stroke-miterlimit:10;}
	.st8{fill:none;stroke:#1FFF26;stroke-width:3;stroke-linecap:round;stroke-linejoin:round;stroke-miterlimit:10;}
</style>
<g>
	<path class="st0" d="M20.3,20c0,0.8,0,1.5-0.1,2.1s-0.2,1-0.5,1.5s-0.5,0.9-0.9,1.4s-1,1.1-1.7,1.9l3.3,4.6
		c0.2,0.3,0.3,0.5,0.4,0.6s0.1,0.3,0.1,0.4c0,0.2-0.1,0.3-0.4,0.4S19.7,33,19,33c-0.6,0-1,0-1.3,0s-0.6-0.1-0.7-0.2
		s-0.3-0.2-0.5-0.4l-5-7.1c-0.3,0.5-0.5,0.9-0.7,1.2s-0.2,0.7-0.3,1.1s-0.1,1.1-0.1,2v2.9c0,0.2-0.1,0.4-0.4,0.5s-0.8,0-1.5,0
		S7.3,33,7,32.9s-0.4-0.2-0.4-0.5v-2.8c0-1.3,0.1-2.3,0.2-3s0.4-1.4,0.8-2.1C8,23.8,8.5,23,9.3,22.2l-2.4-3.4
		c-0.2-0.2-0.3-0.4-0.4-0.6s-0.1-0.3-0.1-0.4c0-0.2,0.1-0.3,0.4-0.4s0.8-0.1,1.5-0.1c0.8,0,1.3,0,1.7,0.1s0.6,0.2,0.8,0.5l4.3,6.1
		c0.5-0.5,0.8-0.9,1-1.3c0.2-0.4,0.3-0.7,0.4-1.1s0.1-0.9,0.1-1.5v-2.3c0-0.2,0.1-0.4,0.4-0.5s0.8-0.1,1.5-0.1s1.2,0,1.5,0.1
		s0.4,0.2,0.4,0.5V20H20.3z"/>
	<path class="st0" d="M27.4,26.2c0,0.2-0.1,0.4-0.4,0.5s-0.8,0.1-1.5,0.1s-1.2,0-1.5-0.1s-0.4-0.2-0.4-0.5v-8.3
		c0-0.2,0.1-0.4,0.4-0.5s0.8-0.1,1.5-0.1s1.2,0,1.5,0.1s0.4,0.2,0.4,0.5V26.2z"/>
	<path class="st0" d="M40.8,32.4c0,0.2-0.1,0.4-0.4,0.5S39.6,33,38.9,33s-1.2,0-1.5-0.1S37,32.6,37,32.4v-8.5c0-0.9,0-1.6-0.1-2
		s-0.2-0.7-0.5-1s-0.5-0.4-1-0.5s-1-0.2-1.8-0.2c-1,0-2.2,0.1-3.7,0.2c-0.2,0-0.3-0.1-0.4-0.3s-0.1-0.6-0.1-1.2s0-1,0.1-1.2
		s0.2-0.3,0.4-0.3c1.3-0.1,2.6-0.2,3.8-0.2c1.4,0,2.6,0.1,3.4,0.3s1.6,0.6,2.1,1s0.9,1.1,1.1,1.9s0.3,1.9,0.3,3.2v8.8H40.8z"/>
	<path class="st0" d="M55.6,29.7c0.2,0.3,0.3,0.5,0.4,0.7s0.1,0.4,0.1,0.6v0.7c0,0.4,0,0.7-0.1,0.9s-0.2,0.3-0.5,0.3H43.6
		c-0.2,0-0.3-0.1-0.4-0.4s-0.1-0.6-0.1-1.1s0-0.9,0.1-1.2s0.2-0.4,0.4-0.4h7.6l-8-11.2c-0.2-0.3-0.3-0.5-0.3-0.7s0.2-0.4,0.5-0.5
		s0.8-0.2,1.5-0.2c0.8,0,1.4,0,1.7,0.1s0.6,0.2,0.7,0.5l4,5.7l0.3-0.3c0.3-0.3,0.5-0.6,0.7-0.9s0.3-0.6,0.3-1s0.1-0.8,0.1-1.4v-2.1
		c0-0.2,0.1-0.4,0.4-0.5s0.8-0.1,1.5-0.1s1.2,0,1.5,0.1s0.4,0.2,0.4,0.5v2c0,1-0.1,1.9-0.2,2.5s-0.4,1.2-0.7,1.8s-0.9,1.2-1.6,2
		l-0.4,0.5L55.6,29.7z"/>
	<path class="st0" d="M63.4,32.4c0,0.2-0.1,0.4-0.4,0.5S62.2,33,61.5,33s-1.2,0-1.5-0.1s-0.4-0.2-0.4-0.5V17.9
		c0-0.2,0.1-0.4,0.4-0.5s0.8-0.1,1.5-0.1s1.2,0,1.5,0.1s0.4,0.2,0.4,0.5V32.4z"/>
	<path class="st0" d="M80.3,20c0,0.8,0,1.5-0.1,2.1s-0.2,1-0.5,1.5s-0.5,0.9-0.9,1.4s-1,1.1-1.7,1.9l3.3,4.6
		c0.2,0.3,0.3,0.5,0.4,0.6c0.1,0.2,0.1,0.3,0.1,0.4c0,0.2-0.1,0.3-0.4,0.4C80.1,33,79.6,33,78.9,33c-0.6,0-1,0-1.3,0
		s-0.6-0.1-0.7-0.2s-0.3-0.2-0.5-0.4l-5-7.1c-0.3,0.5-0.5,0.9-0.7,1.2s-0.2,0.7-0.3,1.1s-0.1,1.1-0.1,2v2.9c0,0.2-0.1,0.4-0.4,0.5
		s-0.7,0-1.4,0s-1.2,0-1.5-0.1s-0.4-0.2-0.4-0.5v-2.8c0-1.3,0.1-2.3,0.2-3s0.4-1.4,0.8-2.1s0.9-1.5,1.6-2.3l-2.4-3.4
		c-0.2-0.2-0.3-0.4-0.4-0.6s-0.1-0.3-0.1-0.4c0-0.2,0.1-0.3,0.4-0.4s0.8-0.1,1.5-0.1c0.8,0,1.3,0,1.7,0.1s0.6,0.2,0.8,0.5L75,24
		c0.5-0.5,0.8-0.9,1-1.3s0.3-0.7,0.4-1.1s0.1-0.9,0.1-1.5v-2.3c0-0.2,0.1-0.4,0.4-0.5s0.8-0.1,1.5-0.1s1.2,0,1.5,0.1
		s0.4,0.2,0.4,0.5V20z"/>
</g>
<g>
	<g id="BACKGROUND" class="st1">
		<path class="st2" d="M102.1,10.5"/>
		<path class="st2" d="M102.1,13.5"/>
		<path class="st3" d="M108.8,19.6H99c-0.3,0-0.6-0.3-0.6-0.6V13c0-0.3,0.3-0.6,0.6-0.6h9.8c0.3,0,0.6,0.3,0.6,0.6v6.1
			C109.4,19.4,109.1,19.6,108.8,19.6z"/>
	</g>
	<g class="st4">
		<path class="st5" d="M109.4,29.6"/>
		<path class="st5" d="M109.4,29.6"/>
	</g>
	<g class="st4">
		<path class="st5" d="M97.3,29.6"/>
		<path class="st5" d="M97.3,29.6"/>
	</g>
	<path class="st5" d="M116.5,9.6"/>
	<path class="st5" d="M117.1,11.5"/>
	<g>
		<g>
			<path class="st6" d="M98.2,43.7"/>
			<path class="st7" d="M116.9,11.5v21.8c0,1.9-1.6,3.5-3.5,3.5h-6"/>
		</g>
	</g>
	<g>
		<g>
			<path class="st8" d="M110.1,43.7"/>
			<path class="st7" d="M91.4,11.5v21.8c0,1.9,1.6,3.5,3.5,3.5h5.8"/>
		</g>
	</g>
	<g>
		<g>
			<line class="st3" x1="109.7" y1="25" x2="98.1" y2="25"/>
		</g>
	</g>
	<g>
		<g>
			<line class="st3" x1="109.7" y1="30.6" x2="98.1" y2="30.6"/>
		</g>
	</g>
</g>
</svg>
