<?xml version="1.0" encoding="utf-8"?>
<!-- Generator: Adobe Illustrator 28.2.0, SVG Export Plug-In . SVG Version: 6.00 Build 0)  -->
<svg version="1.1" id="Layer_1" xmlns="http://www.w3.org/2000/svg" xmlns:xlink="http://www.w3.org/1999/xlink" x="0px" y="0px"
	 viewBox="0 0 24 24" style="enable-background:new 0 0 24 24;" xml:space="preserve">
<style type="text/css">
	.st0{fill:#707070;}
</style>
<path class="st0" d="M4.1,4.1c0,0,5.1-2.5,7.6-3.8c0.5-0.2,1-0.3,1.5-0.3c0.8,0,1.7,0.8,1.7,0.8L24,9.9v9.8h-4.3V24H9.8l-9-9
	C0.3,14.5,0,13.8,0,13.1c0-0.3,0.2-0.8,0.3-1.1L4.1,4.1z M4.8,4.8v11.8c0,0.5,0,1,0.5,1.5l4.9,4.9h8.5v-4.3L4.8,4.8z M16.8,4.1
	c-0.9-0.9-1.8-1.8-2.7-2.6C13.8,1.2,13.5,1,13,1c-0.4,0-0.9,0.2-0.9,0.2L6.3,4.1L16.8,4.1z"/>
</svg>
