<?xml version="1.0" encoding="utf-8"?>
<!-- Generator: Adobe Illustrator 28.2.0, SVG Export Plug-In . SVG Version: 6.00 Build 0)  -->
<svg version="1.1" id="Layer_2_00000108291161162522197480000004451161991961451932_"
	 xmlns="http://www.w3.org/2000/svg" xmlns:xlink="http://www.w3.org/1999/xlink" x="0px" y="0px" viewBox="0 0 23.1 29.2"
	 style="enable-background:new 0 0 23.1 29.2;" xml:space="preserve">
<style type="text/css">
	.st0{fill:#707070;}
</style>
<g id="Layer_1-2">
	<path class="st0" d="M21.3,17.7c-0.7,3.4-3.1,4.8-8.5,4.8c-13.2,0-8.6-10.7-6.7-12.9c0.8-1,1.3-1.8,3.3-1.8h3.7
		c5.3,0,6.2,0.2,7.6,3C21.4,12.2,21.8,15.4,21.3,17.7L21.3,17.7L21.3,17.7z M22.7,11.1c-0.4-2.9-1-6-3.5-7.7c-1.5-1.1-3-1.1-4.8-1.1
		c-1.2,0-5.4,0-7.2,0s-3-1.5-3-2.2c-1.2,1.4-2,3-1.7,4.9c0.3,1.7,1.4,2.8,3.2,3c-1.9,2.7-3.7,5.9-3.6,9.3c0,2.1,0.5,10.4,10,10.4
		h1.7c4,0,6.5-3,7.2-4.2C23,20.1,23.4,14.8,22.7,11.1"/>
	<g>
		<path class="st0" d="M10.8,17.4L7,15.7v-1l3.8-1.7v1.4l-2,0.9l2,0.9C10.8,16,10.8,17.4,10.8,17.4z"/>
		<path class="st0" d="M12.3,18.9H11l2.6-6.6h1.3L12.3,18.9z"/>
		<path class="st0" d="M15.1,13l3.8,1.8v1l-3.8,1.7V16l2-0.9l-2-0.9V13z"/>
	</g>
</g>
</svg>
