<?xml version="1.0" encoding="utf-8"?>
<!-- Generator: Adobe Illustrator 28.2.0, SVG Export Plug-In . SVG Version: 6.00 Build 0)  -->
<svg version="1.1" id="Layer_1" xmlns="http://www.w3.org/2000/svg" xmlns:xlink="http://www.w3.org/1999/xlink" x="0px" y="0px"
	 viewBox="0 0 23.4 23.9" style="enable-background:new 0 0 23.4 23.9;" xml:space="preserve">
<style type="text/css">
	.st0{fill:#FBF7FF;}
</style>
<path class="st0" d="M12,23.6c-1.6,0-3.1-0.3-4.5-0.9c-1.4-0.6-2.6-1.4-3.6-2.4c-1-1-1.8-2.2-2.4-3.6c-0.6-1.4-0.9-2.9-0.9-4.5
	c0-1.6,0.3-3.1,0.9-4.5c0.6-1.4,1.4-2.6,2.4-3.6c1-1,2.2-1.8,3.6-2.4C9,1.1,10.5,0.8,12,0.8c1.6,0,3.1,0.3,4.5,0.9
	c1.4,0.6,2.6,1.4,3.6,2.4c1,1,1.8,2.2,2.4,3.6c0.6,1.4,0.9,2.9,0.9,4.5c0,1.6-0.3,3.1-0.9,4.5c-0.6,1.4-1.4,2.6-2.4,3.6
	c-1,1-2.2,1.8-3.6,2.4C15.1,23.3,13.6,23.6,12,23.6z M4.8,18V6.4C4.1,7.2,3.6,8.1,3.2,9.1c-0.4,1-0.5,2-0.5,3.1s0.2,2.2,0.5,3.2
	C3.6,16.3,4.1,17.2,4.8,18L4.8,18z M6.2,4.9h11.7c-0.8-0.7-1.7-1.2-2.7-1.5c-1-0.4-2.1-0.5-3.2-0.5S9.9,3,8.9,3.4
	C7.9,3.8,7,4.3,6.2,4.9z M12,14.8L15.9,7H8.1L12,14.8z M13.1,17.4h4.1V9.1L13.1,17.4z M6.8,17.4H11L6.8,9.1V17.4z M12,21.5
	c1.1,0,2.2-0.2,3.2-0.5c1-0.4,1.9-0.9,2.7-1.5H6.2C7,20.1,7.9,20.6,8.9,21C9.9,21.3,10.9,21.5,12,21.5L12,21.5z M19.3,18
	c0.7-0.8,1.2-1.7,1.5-2.7c0.4-1,0.5-2.1,0.5-3.2s-0.2-2.2-0.5-3.1c-0.4-1-0.9-1.9-1.5-2.7V18z"/>
</svg>
